<?xml version="1.0" encoding="UTF-8"?>
<svg version="1.1" xmlns="http://www.w3.org/2000/svg" width="1080" height="1080">
<defs>
<mask id="letterHoles" maskUnits="userSpaceOnUse" x="0" y="0" width="1080" height="1080">
<rect width="1080" height="1080" fill="white"/>
<path d="M0 0 C2.75045903 2.40665165 3.86360058 4.46655394 4.251849 8.11976522 C4.25271577 9.00560043 4.25358255 9.89143564 4.25447559 10.80411434 C4.26030779 11.82962995 4.26613998 12.85514555 4.27214891 13.91173738 C4.26836958 15.03672327 4.26459026 16.16170915 4.26069641 17.32078552 C4.26452196 18.51715623 4.26834751 19.71352695 4.27228898 20.94615132 C4.28083301 24.26819766 4.28038127 27.59002311 4.27610838 30.91206324 C4.27364541 34.49427437 4.28264997 38.0764593 4.29014587 41.65866089 C4.30290674 48.67697462 4.30468485 55.69525013 4.30234561 62.71357351 C4.30056388 68.41710147 4.30230897 74.1206178 4.30657005 79.82414436 C4.30746284 81.04093727 4.30746284 81.04093727 4.30837366 82.28231185 C4.30958538 83.93015806 4.31079952 85.57800426 4.31201603 87.22585047 C4.32289687 102.68546701 4.32072648 118.14506176 4.31463119 133.60467953 C4.30946124 147.75306804 4.32071854 161.90138771 4.33972941 176.0497626 C4.3590929 190.57170926 4.36736645 205.09362334 4.36360615 219.615583 C4.36169188 227.77081349 4.36420365 235.92598539 4.37832069 244.08120537 C4.3902165 251.02359962 4.39165967 257.96589921 4.37953053 264.90829473 C4.37362918 268.4511947 4.37257683 271.99392135 4.38453293 275.53680992 C4.39733643 279.3753701 4.38695711 283.21366576 4.3742218 287.05223083 C4.38159609 288.174986 4.38897037 289.29774116 4.39656812 290.45451921 C4.38936158 291.48264256 4.38215503 292.51076591 4.37473011 293.57004452 C4.37481263 294.89904086 4.37481263 294.89904086 4.37489682 296.25488561 C3.78617892 300.17307971 1.9574117 302.8383689 -0.87890625 305.5390625 C-4.71592427 307.72962527 -8.7194424 307.24337596 -13 306.75 C-16.72932501 305.40109521 -17.68134791 304.32335588 -19.60509682 300.86192322 C-21.69562152 295.72389845 -21.41436063 290.49050279 -21.38095093 285.02172852 C-21.3856309 283.84462342 -21.39031087 282.66751833 -21.39513266 281.45474339 C-21.40500693 278.20030457 -21.40148213 274.94620317 -21.39217401 271.69177294 C-21.38537513 268.1770555 -21.39586889 264.66238302 -21.40411377 261.14767456 C-21.41744438 254.26744389 -21.41457638 247.38731148 -21.40587585 240.50707698 C-21.39909706 234.91471345 -21.39818342 229.32237744 -21.4014473 223.73001099 C-21.401907 222.93367644 -21.40236669 222.13734189 -21.40284032 221.31687599 C-21.40379951 219.69907084 -21.40477215 218.0812657 -21.4057581 216.46346056 C-21.41431002 201.29799889 -21.40448096 186.13259164 -21.388357 170.96713889 C-21.37495399 157.95820857 -21.37728214 144.94935856 -21.39111328 131.94042969 C-21.40717259 116.82874574 -21.41348607 101.71710949 -21.40427649 86.60541821 C-21.40332086 84.99360848 -21.40237774 83.38179875 -21.4014473 81.76998901 C-21.40098447 80.97697516 -21.40052164 80.1839613 -21.40004479 79.36691672 C-21.39745595 73.78212594 -21.40182361 68.19736544 -21.40888596 62.61257935 C-21.41730505 55.80535348 -21.41501224 48.99823138 -21.39904372 42.19101739 C-21.39116647 38.71873658 -21.38805998 35.24662869 -21.39799118 31.77434921 C-21.40617539 28.00881688 -21.39592193 24.24377263 -21.38095093 20.47827148 C-21.38764309 19.3828431 -21.39433526 18.28741472 -21.40123022 17.15879154 C-21.35556043 11.24613865 -20.89185878 6.9533685 -18 1.75 C-13.2011392 -2.75802075 -5.79600065 -2.41500027 0 0 Z " fill="black" transform="translate(666,360.25)"/>
<path d="M0 0 C17 0 17 0 24 3 C26.18068934 5.87762236 26.25154764 8.44306707 26.25726891 11.98885155 C26.2637178 12.99981687 26.27016669 14.01078219 26.276811 15.05238283 C26.2737138 16.1611228 26.2706166 17.26986277 26.26742554 18.41220093 C26.27195665 19.59153186 26.27648776 20.7708628 26.28115618 21.98593104 C26.29163832 25.26040689 26.29312399 28.5347449 26.29076743 31.80923223 C26.29035964 35.34034141 26.30139477 38.8714177 26.31088257 42.4025116 C26.32750154 49.32089219 26.33299251 56.2392387 26.33410732 63.15763758 C26.33505734 68.78058926 26.33916533 74.40352969 26.34550858 80.02647781 C26.36312318 95.96500266 26.37234707 111.90350057 26.37084763 127.84203522 C26.37076772 128.70143899 26.3706878 129.56084276 26.37060547 130.44628906 C26.37052371 131.30674086 26.37044195 132.16719266 26.37035771 133.05371876 C26.36954467 147.00098829 26.38868616 160.94814987 26.4168822 174.89538817 C26.44559847 189.2128086 26.4594232 203.53017636 26.45769465 217.84762633 C26.45703033 225.88721692 26.46254107 233.92669433 26.48405075 241.966259 C26.50224602 248.81092767 26.50662357 255.65543183 26.4930319 262.50011419 C26.48649387 265.99256002 26.48641466 269.48469013 26.5037384 272.97710609 C26.51910735 276.76296573 26.50993674 280.54799093 26.49447632 284.33383179 C26.50476344 285.43811032 26.51505057 286.54238885 26.52564943 287.68013036 C26.47249456 293.55285898 26.2523291 297.53470127 22 302 C17 304 17 304 0 304 C0 203.68 0 103.36 0 0 Z " fill="black" transform="translate(742,361)"/>
<path d="M0 0 C2.41972405 3.82740988 2.61680125 7.93613449 3.03735352 12.33276367 C3.12382141 13.17054855 3.21028931 14.00833344 3.29937744 14.87150574 C3.58305912 17.63631507 3.8558414 20.40209251 4.12890625 23.16796875 C4.32462459 25.08808015 4.52116386 27.00810804 4.7184906 28.92805481 C5.2359644 33.97895082 5.74480907 39.0306746 6.25109863 44.08270264 C7.06327401 52.18041903 7.88493879 60.27715506 8.71336174 68.37322426 C9.00157111 71.20750473 9.2839286 74.04232726 9.56581116 76.87724304 C9.74100605 78.60332384 9.91640471 80.32938398 10.09204102 82.05541992 C10.20816994 83.24684601 10.20816994 83.24684601 10.3266449 84.46234131 C10.40518726 88.0337847 10.40518726 88.0337847 12 91 C12.68645374 95.45699377 13.0913018 99.95322625 13.5625 104.4375 C13.70107422 105.68466797 13.83964844 106.93183594 13.98242188 108.21679688 C14.11326172 109.44333984 14.24410156 110.66988281 14.37890625 111.93359375 C14.4982251 113.04790771 14.61754395 114.16222168 14.74047852 115.31030273 C15.06070818 119.86310699 15 124.43594768 15 129 C4.11 129 -6.78 129 -18 129 C-18 123.26270678 -17.82158417 118.60880111 -17.0625 113.0625 C-16.88847656 111.75410156 -16.71445313 110.44570313 -16.53515625 109.09765625 C-16 106 -16 106 -15 105 C-14.52029155 102.00030289 -14.09770496 99.00998819 -13.70898438 95.99804688 C-13.52098015 94.58109276 -13.52098015 94.58109276 -13.32917786 93.13551331 C-13.05667017 91.07753354 -12.78612873 89.01929271 -12.51728821 86.96083069 C-12.09243214 83.70866214 -11.66235283 80.45722347 -11.23083496 77.20593262 C-10.31583431 70.30457462 -9.40745879 63.40235318 -8.5 56.5 C-7.44893047 48.50530845 -6.39520411 40.510987 -5.33430481 32.51759338 C-4.90931851 29.30444971 -4.48943717 26.09066431 -4.06970215 22.87683105 C-3.81039016 20.91850527 -3.55084107 18.96021086 -3.29101562 17.00195312 C-3.17462234 16.10009781 -3.05822906 15.19824249 -2.93830872 14.26905823 C-2.11384346 8.11384346 -2.11384346 8.11384346 -1 7 C-0.63239269 4.67182036 -0.29758419 2.3381615 0 0 Z " fill="black" transform="translate(167,441)"/>
<path d="M0 0 C0.33 0 0.66 0 1 0 C1.33851178 2.68693722 1.670936 5.37440289 2 8.0625 C2.09539062 8.81466797 2.19078125 9.56683594 2.2890625 10.34179688 C2.84571902 14.93421317 3.09829028 19.3742135 3 24 C1.02 24 -0.96 24 -3 24 C-2.50877547 15.86894139 -1.64733759 7.98079085 0 0 Z " fill="black" transform="translate(402,718)"/>
<path d="M0 0 C0.33 0 0.66 0 1 0 C1.33965474 2.18652739 1.67142477 4.37428025 2 6.5625 C2.185625 7.78066406 2.37125 8.99882813 2.5625 10.25390625 C2.98555077 13.87627848 3.07501425 17.35712046 3 21 C1.02 21 -0.96 21 -3 21 C-2.01 14.07 -1.02 7.14 0 0 Z " fill="black" transform="translate(217,721)"/>
</mask>
</defs>
<path d="M265 353.75 C263.824375 354.07484375 262.64875 354.3996875 261.4375 354.734375 C256.08954372 356.70339527 251.73638228 359.68878968 248 364 C248 364.66 248 365.32 248 366 C247.34 366 246.68 366 246 366 C242.47922759 373.32172279 241.42326743 379.43080549 241.49879456 387.50611877 C241.49326016 388.62312272 241.48772576 389.74012668 241.48202366 390.89097923 C241.46847446 394.61187602 241.48335596 398.33209538 241.49829102 402.05297852 C241.49450578 404.72949043 241.48915605 407.40595794 241.48191833 410.0824585 C241.4680239 416.5839861 241.4755136 423.08531877 241.49059392 429.586837 C241.50749966 437.16530179 241.50423805 444.74371865 241.50049984 452.32219648 C241.49462831 465.84756804 241.50876551 479.37284636 241.53344727 492.89819336 C241.55737071 506.00955703 241.56444877 519.12079616 241.55395508 532.23217773 C241.54253536 546.52610794 241.54062846 560.81998062 241.55505317 575.11391014 C241.55657894 576.63920748 241.5580993 578.16450482 241.55961418 579.68980217 C241.560372 580.44018799 241.56112981 581.1905738 241.56191059 581.96369858 C241.5666449 587.24100617 241.56480808 592.51828799 241.56054878 597.79559517 C241.55561261 604.2297691 241.56164885 610.6638255 241.58144308 617.09797258 C241.59128706 620.37813032 241.5948332 623.65807373 241.58855057 626.93824577 C241.58258573 630.49930928 241.5951268 634.05984854 241.61231995 637.62086487 C241.6063099 638.65005698 241.60029986 639.6792491 241.59410769 640.73962885 C241.66992914 649.38836092 243.12983987 656.73381518 249.0625 663.3125 C249.75472656 664.11300781 250.44695312 664.91351562 251.16015625 665.73828125 C258.36172198 671.47377858 266.01357453 672.65103236 275 672.5 C275.92039062 672.51546875 276.84078125 672.5309375 277.7890625 672.546875 C285.42807055 672.50383833 292.38436723 670.95717607 298.40234375 666.03515625 C298.90894531 665.38417969 299.41554688 664.73320313 299.9375 664.0625 C300.48535156 663.36769531 301.03320312 662.67289063 301.59765625 661.95703125 C305.15909262 656.98689303 307.1285673 653.13980223 307.12025452 646.98834229 C307.12162918 646.2003273 307.12300385 645.41231232 307.12442017 644.60041809 C307.12082489 643.74518051 307.11722961 642.88994293 307.11352539 642.00878906 C307.11367142 641.10112289 307.11381744 640.19345673 307.1139679 639.25828552 C307.11327171 636.26070763 307.10549302 633.26319202 307.09765625 630.265625 C307.09579103 628.1862593 307.09436762 626.10689315 307.09336853 624.02752686 C307.08955157 618.55636378 307.07972826 613.08522728 307.06866455 607.61407471 C307.05843281 602.03048054 307.05386713 596.44688209 307.04882812 590.86328125 C307.03810528 579.9088425 307.02103868 568.95442346 307 558 C303.68751813 557.97111854 300.37506833 557.95324201 297.0625 557.9375 C296.11697266 557.92912109 295.17144531 557.92074219 294.19726562 557.91210938 C293.29814453 557.90888672 292.39902344 557.90566406 291.47265625 557.90234375 C290.64000244 557.89710693 289.80734863 557.89187012 288.94946289 557.88647461 C286.99483202 557.78356708 286.99483202 557.78356708 286 559 C285.89589351 562.10884616 285.85639217 565.1962097 285.8581543 568.30566406 C285.85467987 569.28288925 285.85120544 570.26011444 285.84762573 571.26695251 C285.84025329 573.39719316 285.83491588 575.52744156 285.83133507 577.65769196 C285.8241923 581.0281046 285.80854183 584.39836972 285.78999329 587.76873779 C285.73742349 597.35443077 285.68954239 606.94004493 285.67407227 616.52587891 C285.66399946 622.38214671 285.63468929 628.23804692 285.59275246 634.09416962 C285.58042431 636.3284604 285.57532449 638.56280308 285.57755089 640.79712677 C285.57989964 643.92407017 285.55776791 647.04995701 285.5300293 650.17675781 C285.53993141 651.56407356 285.53993141 651.56407356 285.55003357 652.97941589 C285.48878242 657.18113087 285.36453243 659.41704429 283.09187317 663.05145264 C279.52791235 666.37122678 276.94666799 666.22018893 272.2578125 666.15234375 C269.43876964 665.96213152 267.42436956 665.46931488 265 664 C262.34496244 660.01744366 261.8753499 655.75588722 261.86857224 651.06079388 C261.86473109 650.06089544 261.86088995 649.060997 261.8569324 648.03079861 C261.85779888 646.93441361 261.85866537 645.8380286 261.85955811 644.7084198 C261.85658698 643.54204509 261.85361586 642.37567037 261.8505547 641.17395097 C261.84337534 637.93564405 261.84069546 634.69736945 261.83995724 631.45905578 C261.83810569 627.96679266 261.83055788 624.47454102 261.82382202 620.98228455 C261.8102427 613.3459329 261.80421472 605.7095865 261.79981136 598.07322478 C261.79704849 593.30515097 261.79281107 588.53707918 261.78830719 583.76900673 C261.77611547 570.56762284 261.76581569 557.36624058 261.7624321 544.16485119 C261.76221253 543.32001579 261.76199297 542.47518039 261.76176675 541.60474392 C261.76154847 540.75788941 261.76133019 539.9110349 261.7611053 539.03851813 C261.76066183 537.32247237 261.76021527 535.60642662 261.75976562 533.89038086 C261.7595442 533.03916321 261.75932277 532.18794557 261.75909463 531.31093345 C261.7551461 517.51632485 261.73768999 503.72176905 261.7144061 489.92718085 C261.69069396 475.76457289 261.67823032 461.60199143 261.67706418 447.4393633 C261.67614739 439.48750737 261.67039394 431.53572026 261.65224457 423.58388329 C261.63684549 416.81319574 261.63172199 410.04259829 261.63998267 403.27189656 C261.64388977 399.81785417 261.64295683 396.36399322 261.62892532 392.90997314 C261.61626501 389.16400215 261.62205096 385.41849855 261.63250732 381.67253113 C261.62445092 380.58283828 261.61639452 379.49314544 261.60809398 378.3704316 C261.64669291 372.46786625 262.11474226 368.19503099 265 363 C268.69508626 359.52885836 272.66149194 359.58769405 277.5 359.40625 C281.26296468 360.29995411 282.61910444 361.97869662 285 365 C285.72386181 368.00073775 285.68085596 370.92156676 285.64355469 373.99707031 C285.6524321 374.89352264 285.66130951 375.78997498 285.67045593 376.71359253 C285.6941077 379.66881521 285.68295573 382.62284594 285.671875 385.578125 C285.68245244 387.63125907 285.69536297 389.68438235 285.71051025 391.73748779 C285.74472375 397.1359942 285.7500922 402.53413919 285.74859619 407.93273926 C285.75182266 415.5570156 285.7944204 423.18119141 285.83233643 430.80535889 C285.85241595 434.86632022 285.86168696 438.9270892 285.86248779 442.98809814 C285.86630631 444.83223476 285.87015012 446.67637132 285.87402344 448.52050781 C285.87192368 449.36932526 285.86982391 450.2181427 285.86766052 451.09268188 C285.51509311 454.85156405 285.51509311 454.85156405 287 458 C288.4887186 458.08669432 289.981445 458.10703494 291.47265625 458.09765625 C292.82133789 458.09282227 292.82133789 458.09282227 294.19726562 458.08789062 C295.14279297 458.07951172 296.08832031 458.07113281 297.0625 458.0625 C298.4865918 458.05573242 298.4865918 458.05573242 299.93945312 458.04882812 C302.29303065 458.0370011 304.64648477 458.02052025 307 458 C307.02316284 447.63838296 307.04093524 437.27677208 307.05181217 426.91513443 C307.05703235 422.10389543 307.06411435 417.29267413 307.07543945 412.48144531 C307.08629899 407.83898494 307.09228336 403.19654161 307.09487724 398.55406952 C307.09672595 396.78224164 307.10033595 395.01041469 307.10573006 393.23859406 C307.11298114 390.758326 307.11398922 388.2781285 307.11352539 385.79785156 C307.1189183 384.69733459 307.1189183 384.69733459 307.12442017 383.57458496 C307.11766379 380.23916479 307.03905634 377.18867392 306 374 C305.34 374 304.68 374 304 374 C303.95875 373.34 303.9175 372.68 303.875 372 C302.06424745 365.79170553 297.34880974 360.5223869 292 357 C282.56575738 352.45758689 275.12923657 350.86227905 265 353.75 Z M654 353 C652.52379453 353.24752536 651.04380429 353.47258378 649.5625 353.6875 C642.52346311 355.04077252 636.74994894 358.32241814 631.625 363.3125 C626.90865802 371.11260405 625.41397359 377.38352459 625.49206543 386.49302673 C625.48582547 387.62072135 625.4795855 388.74841597 625.47315645 389.91028315 C625.45725451 393.6733956 625.46982052 397.43585782 625.48242188 401.19897461 C625.47919912 403.90326771 625.47002037 406.60753356 625.46118164 409.31181335 C625.44343104 415.88532615 625.44722104 422.45865586 625.4588322 429.03217571 C625.4678807 434.37704699 625.46908441 439.7218671 625.46473694 445.06674385 C625.46412401 445.82863691 625.46351107 446.59052998 625.46287957 447.37551071 C625.46160061 448.92349161 625.46030376 450.47147249 625.4589892 452.01945335 C625.44759334 466.52215167 625.46068107 481.02474872 625.48219067 495.52743042 C625.50005717 507.95836045 625.49695935 520.38914103 625.47851562 532.82006836 C625.4570851 547.27075473 625.44869567 561.7213524 625.46096468 576.17205244 C625.46223881 577.71451508 625.4634963 579.25697772 625.46473694 580.79944038 C625.46535404 581.55827281 625.46597114 582.31710523 625.46660694 583.09893258 C625.47005358 588.43388082 625.46424628 593.76877258 625.45481873 599.10371208 C625.4435729 605.6103688 625.44669264 612.11683262 625.4679417 618.62346738 C625.47841844 621.94031268 625.48046147 625.25657242 625.46934509 628.57345581 C625.45838616 632.17595214 625.4721593 635.77755024 625.49206543 639.37998962 C625.48314254 640.41862386 625.47421966 641.4572581 625.46502638 642.5273661 C625.54914328 650.39616645 627.10873559 657.35331124 632.078125 663.62109375 C632.79484375 664.22050781 633.5115625 664.81992187 634.25 665.4375 C634.95640625 666.05496094 635.6628125 666.67242188 636.390625 667.30859375 C643.47013908 671.89756021 649.76786283 672.47593901 658 672.375 C658.94617188 672.38660156 659.89234375 672.39820313 660.8671875 672.41015625 C670.57337926 672.36982581 676.94471378 669.8161678 684.08203125 663.12109375 C688.86851423 657.82769201 690.12253572 651.21421799 690.12863445 644.22444534 C690.13347112 642.81751289 690.13347112 642.81751289 690.1384055 641.38215756 C690.1368569 640.36008671 690.1353083 639.33801585 690.13371277 638.28497314 C690.1371111 636.64650205 690.1371111 636.64650205 690.14057809 634.97493052 C690.14691776 631.30782059 690.14608874 627.64074762 690.14526367 623.97363281 C690.1482552 621.34713696 690.15165772 618.72064156 690.15544128 616.09414673 C690.16374476 609.69560704 690.166496 603.29707657 690.16705366 596.89853194 C690.16752903 591.69611418 690.1695848 586.49369946 690.17275429 581.29128265 C690.18156053 566.53595521 690.18617378 551.78063503 690.18542381 537.02530494 C690.18536388 535.83232001 690.18536388 535.83232001 690.18530273 534.61523438 C690.18524141 533.42078969 690.18524141 533.42078969 690.18517885 532.20221481 C690.18477253 519.30141341 690.19433862 506.40064122 690.2084411 493.49984828 C690.22281281 480.24798902 690.22971083 466.99614401 690.22884732 453.74427676 C690.2285156 446.30658914 690.23125189 438.86893212 690.24202538 431.43125153 C690.2511409 425.09763489 690.25329704 418.76406273 690.24651595 412.43044236 C690.24325587 409.20098185 690.24426715 405.97162415 690.2518692 402.74216843 C690.25958811 399.23569007 690.25494473 395.72943499 690.24723816 392.22296143 C690.25238172 391.20981345 690.25752529 390.19666548 690.26282471 389.15281606 C690.20385252 376.9912853 687.69229202 368.37885149 678.9375 359.6875 C674.45998781 355.8366885 670.14303396 354.56641178 664.40625 353.47265625 C662 353 662 353 661 352 C657.19759625 351.52263947 657.19759625 351.52263947 654 353 Z M997 362 C991.16243233 368.98118473 989.69934296 375.31085235 989.7253418 384.27490234 C989.72023087 385.18951736 989.71511993 386.10413239 989.70985413 387.04646301 C989.69599296 390.05968838 989.69691239 393.0726841 989.69921875 396.0859375 C989.69532974 398.18812138 989.69099465 400.29030448 989.68623352 402.39248657 C989.67877865 406.79553781 989.67905717 411.19850885 989.68432617 415.6015625 C989.6901179 421.2326483 989.67319324 426.86340487 989.6499815 432.49443626 C989.63522002 436.83541775 989.63437579 441.1763204 989.63749123 445.51732254 C989.63697917 447.5928678 989.63176319 449.66841761 989.62167931 451.74393845 C989.60928636 454.65161013 989.61612398 457.5586464 989.62768555 460.46630859 C989.62004181 461.31644028 989.61239807 462.16657196 989.60452271 463.04246521 C989.67860309 471.50916731 992.34856616 477.56689675 997.375 484.4375 C1000.53781027 488.83990211 1003.38743151 493.27409613 1005.9453125 498.0546875 C1007.46582221 500.85918319 1009.09527826 503.43847767 1011 506 C1011.66 506 1012.32 506 1013 506 C1013.11770752 506.5772583 1013.23541504 507.1545166 1013.35668945 507.74926758 C1014.04234864 510.148164 1014.98408742 511.8923971 1016.29296875 514.01171875 C1016.75582275 514.76557861 1017.21867676 515.51943848 1017.69555664 516.29614258 C1018.18789795 517.08529053 1018.68023926 517.87443848 1019.1875 518.6875 C1019.68564209 519.49533936 1020.18378418 520.30317871 1020.69702148 521.13549805 C1023.64458959 525.89473747 1026.64779555 530.60236936 1029.87890625 535.17578125 C1032.25525151 539.04251727 1033.24959534 542.4787621 1033.26742554 547.00267029 C1033.27595551 547.98532867 1033.28448547 548.96798706 1033.29327393 549.98042297 C1033.29236755 551.04705673 1033.29146118 552.11369049 1033.29052734 553.21264648 C1033.29724457 554.34490662 1033.30396179 555.47716675 1033.31088257 556.64373779 C1033.32987913 560.38623442 1033.33378744 564.12855192 1033.3359375 567.87109375 C1033.34236353 570.47274347 1033.34909174 573.07439246 1033.35610962 575.67604065 C1033.36808603 581.12918074 1033.37187566 586.58224976 1033.37060547 592.03540039 C1033.36940371 598.33108508 1033.39051615 604.62642715 1033.4220928 610.92202514 C1033.45142971 616.98809382 1033.45858074 623.05399843 1033.45738602 629.12013435 C1033.45974711 631.69694481 1033.46859907 634.27375778 1033.48405075 636.85052299 C1033.50363442 640.4532916 1033.49790202 644.05517631 1033.48583984 647.65795898 C1033.49707886 648.72256851 1033.50831787 649.78717804 1033.51989746 650.88404846 C1033.46881422 656.88494996 1033.04903871 660.45032509 1029 665 C1025.3076609 666.84616955 1021.03869052 666.3434477 1017 666 C1014 664.875 1014 664.875 1012 663 C1009.69058167 657.76157264 1009.69456954 652.84675864 1009.68115234 647.23095703 C1009.67110672 646.26447739 1009.6610611 645.29799774 1009.65071106 644.30223083 C1009.6199217 641.12076388 1009.60285559 637.93938092 1009.5859375 634.7578125 C1009.56722246 632.54677612 1009.54764879 630.33574685 1009.5272522 628.12472534 C1009.47596067 622.31498412 1009.43631888 616.50521974 1009.39910889 610.69537354 C1009.35905066 604.76300341 1009.30796658 598.83072934 1009.2578125 592.8984375 C1009.16108837 581.26568582 1009.07769159 569.63289438 1009 558 C1002.73 558 996.46 558 990 558 C989.88681311 570.2137361 989.79517638 582.427121 989.74093914 594.64126396 C989.71490139 600.31345052 989.67960942 605.98525808 989.62280273 611.65722656 C989.56827582 617.13616765 989.53853571 622.61474533 989.52561378 628.09393692 C989.51641101 630.17904502 989.49844024 632.26413435 989.47134972 634.34908676 C988.94716348 650.85075442 988.94716348 650.85075442 996.72660828 664.87789917 C1003.58230782 671.61994502 1011.69900329 672.50691951 1020.875 672.4375 C1021.80441406 672.45748047 1022.73382812 672.47746094 1023.69140625 672.49804688 C1032.15174789 672.49214706 1039.52648649 670.5427098 1045.875 664.75 C1053.48208231 656.37144472 1054.14847236 647.56272107 1054.16113281 636.67114258 C1054.16609772 635.64430359 1054.17106262 634.6174646 1054.17617798 633.55950928 C1054.19075132 630.17117638 1054.19759395 626.78289031 1054.203125 623.39453125 C1054.20888088 621.03049214 1054.21463856 618.66645304 1054.22039795 616.30241394 C1054.23089453 611.34703352 1054.23674584 606.39166926 1054.24023438 601.4362793 C1054.24571301 595.10601678 1054.26973351 588.77597 1054.29820633 582.44577503 C1054.3168886 577.56167489 1054.32204131 572.67762612 1054.32357025 567.79349327 C1054.32658521 565.46085113 1054.33457437 563.12820965 1054.34775543 560.7956028 C1054.36493102 557.52218131 1054.36290741 554.24927912 1054.35644531 550.97583008 C1054.3656601 550.02427536 1054.37487488 549.07272064 1054.3843689 548.09233093 C1054.32335802 538.15859083 1052.0186397 529.53882766 1046.4375 521.3125 C1045.54377205 519.94173132 1044.65055817 518.57062737 1043.7578125 517.19921875 C1043.07380371 516.1635376 1043.07380371 516.1635376 1042.37597656 515.10693359 C1040.56191332 512.32918949 1038.82246757 509.50832349 1037.08203125 506.68408203 C1033.49605126 500.86789833 1029.79216289 495.20599634 1025.796875 489.66015625 C1022.99368979 485.51022337 1020.49734614 481.17469015 1018.01928711 476.82397461 C1017.0658331 475.1840168 1016.03903362 473.58711856 1015 472 C1014.34 472 1013.68 472 1013 472 C1010.69109163 465.347955 1009.55993182 459.46753271 1009.61181641 452.4387207 C1009.60655945 451.54142242 1009.60130249 450.64412415 1009.59588623 449.71963501 C1009.58280751 446.78816723 1009.5913787 443.85725341 1009.6015625 440.92578125 C1009.59953881 438.871759 1009.59662492 436.81773746 1009.59286499 434.76371765 C1009.58845853 430.47448842 1009.59482049 426.18544747 1009.60888672 421.89624023 C1009.62601 416.40863536 1009.61610676 410.92146973 1009.59816933 405.43388081 C1009.58731379 401.19844774 1009.59078542 396.96311835 1009.5985527 392.72768211 C1009.60054812 390.70434708 1009.59811865 388.6810025 1009.59111404 386.6576786 C1009.58346682 383.82923138 1009.59514817 381.00149052 1009.61181641 378.1730957 C1009.60270737 376.92998375 1009.60270737 376.92998375 1009.59341431 375.66175842 C1009.65083241 370.38325742 1010.52382448 366.68761748 1013 362 C1015.8703589 359.82331117 1018.45842293 359.72840502 1022 359.75 C1022.845625 359.74484375 1023.69125 359.7396875 1024.5625 359.734375 C1027.2301057 360.02507562 1028.78384755 360.49072377 1031 362 C1033.7737324 365.8584664 1033.30723353 370.35155107 1033.31884766 374.89941406 C1033.32889328 375.79732666 1033.3389389 376.69523926 1033.34928894 377.62036133 C1033.38015609 380.58544277 1033.39716597 383.55043376 1033.4140625 386.515625 C1033.4327713 388.57257874 1033.45234449 390.62952478 1033.4727478 392.6864624 C1033.5241054 398.09838323 1033.56371179 403.51032895 1033.60089111 408.92236328 C1033.64090796 414.44570085 1033.69201089 419.96893454 1033.7421875 425.4921875 C1033.83898985 436.32805934 1033.92235633 447.16397392 1034 458 C1040.6 458 1047.2 458 1054 458 C1054.04529681 448.11588683 1054.08194258 438.23184331 1054.10362434 428.34764957 C1054.11403376 423.75736172 1054.12814073 419.16714895 1054.15087891 414.5769043 C1054.17270905 410.14189866 1054.18458998 405.70696496 1054.18975449 401.27190971 C1054.19343205 399.58514716 1054.20061316 397.89838826 1054.21146011 396.21165657 C1054.28605248 384.12478807 1054.22879329 373.27249572 1047 363 C1042.16818778 358.16818778 1036.06783839 353.76427846 1029 353.75 C1027.515 353.87375 1027.515 353.87375 1026 354 C1026 353.34 1026 352.68 1026 352 C1016.21303842 351.60053218 1004.1164495 354.8835505 997 362 Z M27 356 C26.67 357.65 26.34 359.3 26 361 C30.95 361 35.9 361 41 361 C41 461.32 41 561.64 41 665 C36.38 665 31.76 665 27 665 C26.67 666.65 26.34 668.3 26 670 C52.4 670 78.8 670 106 670 C106 641.62 106 613.24 106 584 C104.35 584 102.7 584 101 584 C99.12522896 585.87477104 99.802065 589.07516724 99.75390625 591.578125 C99.72237964 592.97103531 99.69054754 594.36393873 99.65844727 595.75683594 C99.64306915 596.49059448 99.62769104 597.22435303 99.61184692 597.98034668 C99.21700747 616.1405196 98.12531281 634.07932336 95 652 C94.34 652 93.68 652 93 652 C90.03764305 655.63323689 90.03764305 655.63323689 89 660 C79.60372069 664.1108722 71.55151292 664.29656581 61 665 C61 564.68 61 464.36 61 361 C66.28 361 71.56 361 77 361 C77 359.35 77 357.7 77 356 C60.5 356 44 356 27 356 Z M170 356 C168.26001213 365.88476054 166.9336649 375.81160017 165.67456055 385.76635742 C165.42083012 387.76528113 165.16168298 389.76351498 164.90234375 391.76171875 C164.67792603 393.524552 164.67792603 393.524552 164.44897461 395.32299805 C164 398 164 398 163 399 C162.54546333 401.77948265 162.14817826 404.54819304 161.78491211 407.34008789 C161.66772324 408.2149585 161.55053436 409.0898291 161.42979431 409.99121094 C161.04127272 412.90113011 160.659092 415.81184129 160.27734375 418.72265625 C160.00995383 420.74233413 159.74233713 422.76198199 159.47450256 424.78160095 C158.9126967 429.02582509 158.35409113 433.27045574 157.79760742 437.51538086 C157.08556946 442.94445504 156.36505156 448.37236351 155.64200497 453.79998112 C155.08668811 457.97661803 154.53626027 462.1538884 153.98724556 466.33135796 C153.72369111 468.33174854 153.45855452 470.33193135 153.19178581 472.33189583 C152.81808044 475.13868243 152.45106231 477.94626807 152.08569336 480.75415039 C151.97505554 481.57473434 151.86441772 482.3953183 151.75042725 483.24076843 C151.11318744 488.20450055 150.90075922 492.99504673 151 498 C150.34 498 149.68 498 149 498 C148.83935562 499.23805893 148.67871124 500.47611786 148.51319885 501.75169373 C147.00219037 513.39243654 145.48672598 525.03259161 143.96684361 536.67217922 C143.18551442 542.65689386 142.40578266 548.64180778 141.62963867 554.62719727 C140.8812204 560.39832156 140.12868838 566.16889554 139.37324333 571.93910408 C139.08508199 574.14583112 138.79842925 576.35275568 138.51327705 578.55987358 C138.11508214 581.63997293 137.71163438 584.71934015 137.30688477 587.79858398 C137.18892044 588.72071182 137.07095612 589.64283966 136.94941711 590.59291077 C136.11405216 596.88594784 136.11405216 596.88594784 135 598 C134.66997167 599.86487089 134.39913516 601.74025233 134.15209961 603.61791992 C133.99200912 604.81974411 133.83191864 606.0215683 133.66697693 607.2598114 C133.4952278 608.5833373 133.32368865 609.90689046 133.15234375 611.23046875 C132.97467275 612.58233525 132.79673644 613.9341669 132.61854553 615.28596497 C132.24513692 618.12624434 131.87479105 620.96690208 131.5065918 623.80786133 C131.03577179 627.43891757 130.55773693 631.06897878 130.07739925 634.69878674 C129.7082347 637.49434276 129.34281722 640.29037888 128.97851753 643.08657265 C128.71906687 645.07313321 128.45659658 647.05929865 128.19407654 649.04545593 C128.03713821 650.26304092 127.88019989 651.48062592 127.71850586 652.73510742 C127.50985146 654.33608528 127.50985146 654.33608528 127.29698181 655.96940613 C127.00324621 658.96687355 127 661.98817472 127 665 C122.05 665 117.1 665 112 665 C111.67 666.65 111.34 668.3 111 670 C123.87 670 136.74 670 150 670 C150 668.35 150 666.7 150 665 C145.05 665 140.1 665 135 665 C135.4742346 661.85334902 135.95413431 658.70774933 136.4375 655.5625 C136.57220703 654.66466797 136.70691406 653.76683594 136.84570312 652.84179688 C136.97783203 651.98779297 137.10996094 651.13378906 137.24609375 650.25390625 C137.36654053 649.46314697 137.4869873 648.6723877 137.61108398 647.85766602 C138 646 138 646 139 645 C139.3296115 643.19651441 139.60063623 641.38228178 139.84790039 639.56567383 C140.00799088 638.40389114 140.16808136 637.24210846 140.33302307 636.04512024 C140.50285202 634.77855087 140.67268097 633.51198151 140.84765625 632.20703125 C141.02380966 630.91310959 141.19996307 629.61918793 141.38145447 628.28605652 C141.75485564 625.53994518 142.12519737 622.79344282 142.4934082 620.04663086 C142.96415882 616.53660731 143.44222131 613.02762754 143.92260075 609.51891041 C144.3807188 606.16547958 144.83267179 602.81122693 145.28515625 599.45703125 C145.45700943 598.20058304 145.62886261 596.94413483 145.80592346 595.64961243 C145.96286179 594.47206894 146.11980011 593.29452545 146.28149414 592.08129883 C146.42059708 591.04951004 146.55970001 590.01772125 146.70301819 588.95466614 C147.00169775 585.98310915 147 582.98652983 147 580 C159.21 580 171.42 580 184 580 C184.33 585.61 184.66 591.22 185 597 C185.4257802 601.63228337 185.87375739 606.25148035 186.375 610.875 C186.50438965 612.09155273 186.6337793 613.30810547 186.76708984 614.56152344 C187.03738673 617.09233694 187.30969158 619.62293677 187.58398438 622.15332031 C188.00506917 626.04687197 188.41693548 629.94132969 188.828125 633.8359375 C189.09320472 636.30735021 189.35880972 638.77870666 189.625 641.25 C189.74794434 642.41644043 189.87088867 643.58288086 189.99755859 644.78466797 C190.11437988 645.85088379 190.23120117 646.91709961 190.3515625 648.015625 C190.45291504 648.95696289 190.55426758 649.89830078 190.65869141 650.86816406 C190.78282277 652.97829951 190.78282277 652.97829951 192 654 C192.20768229 655.47396739 192.36716017 656.9549126 192.5 658.4375 C192.79146944 661.84497505 192.79146944 661.84497505 194 665 C189.05 665 184.1 665 179 665 C179 666.65 179 668.3 179 670 C195.5 670 212 670 229 670 C229 668.35 229 666.7 229 665 C224.05 664.67 219.1 664.34 214 664 C213.823479 662.30883057 213.64695801 660.61766113 213.46508789 658.87524414 C212.88199612 653.29888747 212.2948478 647.72296806 211.7049036 642.14733219 C211.34723535 638.76553527 210.99121765 635.38358125 210.63891602 632.0012207 C210.23418408 628.11618145 209.82237376 624.2319087 209.41015625 620.34765625 C209.22103416 618.51800072 209.22103416 618.51800072 209.02809143 616.65138245 C208.90804245 615.53029587 208.78799347 614.40920929 208.66430664 613.25415039 C208.5599379 612.26153702 208.45556915 611.26892365 208.34803772 610.24623108 C208.23178988 608.03495673 208.23178988 608.03495673 207 607 C206.74859589 605.41263514 206.55839459 603.81553004 206.39294434 602.21691895 C206.28363083 601.18204849 206.17431732 600.14717804 206.06169128 599.08094788 C205.88710136 597.3634861 205.88710136 597.3634861 205.70898438 595.61132812 C205.58364822 594.41309921 205.45831207 593.2148703 205.32917786 591.98033142 C205.05659461 589.36898162 204.78562149 586.75752123 204.51728821 584.14573669 C204.09327597 580.01986957 203.66258543 575.89471685 203.23083496 571.76965332 C202.23740145 562.26815706 201.25280853 552.76574854 200.26825714 543.26332855 C199.36606307 534.55666382 198.46203315 525.85020048 197.55084658 517.14447165 C197.12148982 513.03980758 196.69645728 508.9347251 196.27466583 504.82927704 C195.95023972 501.68204784 195.6201681 498.53540974 195.29101562 495.38867188 C195.1164257 493.6712101 195.1164257 493.6712101 194.93830872 491.91905212 C194.82899521 490.88418167 194.7196817 489.84931122 194.60705566 488.78308105 C194.46658688 487.42584553 194.46658688 487.42584553 194.32328033 486.0411911 C194.20668446 484.01075442 194.20668446 484.01075442 193 483 C192.7507964 481.41933115 192.56284182 479.82895825 192.39967346 478.23710632 C192.23787094 476.69130386 192.23787094 476.69130386 192.07279968 475.11427307 C191.95797745 473.97401169 191.84315521 472.83375031 191.72485352 471.65893555 C191.60112366 470.46552551 191.4773938 469.27211548 191.34991455 468.0425415 C191.080663 465.441014 190.81300125 462.83937633 190.54785347 460.23743248 C190.12833956 456.12328575 189.70142329 452.00992856 189.2731781 447.89668274 C188.13320465 436.93648477 187.00220705 425.97536526 185.87746996 415.01359349 C185.13909332 407.8173643 184.39628379 400.62162455 183.64493507 393.42673713 C183.2183354 389.33820011 182.79885672 385.2490142 182.38464177 381.15920484 C182.06419657 378.01523376 181.73357385 374.87233019 181.40454102 371.72924805 C181.29174301 370.59505936 181.17894501 369.46087067 181.06272888 368.29231262 C180.95204071 367.25331818 180.84135254 366.21432373 180.72731018 365.1438446 C180.63458611 364.2417863 180.54186205 363.33972799 180.44632816 362.41033459 C179.99179132 359.95567012 179.22854648 358.16032902 178 356 C175.36 356 172.72 356 170 356 Z M322 356 C322 357.65 322 359.3 322 361 C326.95 361 331.9 361 337 361 C337 461.32 337 561.64 337 665 C332.05 665 327.1 665 322 665 C322 666.65 322 668.3 322 670 C332.41342925 670.02312359 342.82685244 670.04091517 353.24030209 670.05181217 C358.07516827 670.05704097 362.91001694 670.06413854 367.74487305 670.07543945 C372.4067712 670.08626847 377.06865246 670.09227686 381.73056221 670.09487724 C383.51324288 670.09673147 385.29592259 670.10035203 387.07859612 670.10573006 C389.5666596 670.11294069 392.05465243 670.11399093 394.54272461 670.11352539 C395.28718842 670.11712067 396.03165222 670.12071594 396.79867554 670.12442017 C400.18567883 670.41980997 400.18567883 670.41980997 403 669 C403.10571371 666.42437581 403.14678123 663.87542825 403.14526367 661.29907227 C403.14862228 660.49259247 403.1519809 659.68611267 403.15544128 658.85519409 C403.16498015 656.1755827 403.16689586 653.49603359 403.16796875 650.81640625 C403.17117928 648.96174595 403.17454319 647.1070859 403.17805481 645.25242615 C403.18405343 641.35927747 403.18589396 637.46615102 403.18530273 633.57299805 C403.18520107 628.57461322 403.19885475 623.57637031 403.21607494 618.57801914 C403.22717182 614.74598023 403.22922266 610.91397587 403.22869301 607.08192253 C403.22987657 605.23866219 403.23431924 603.39540106 403.24202538 601.55215645 C403.25177886 598.97810948 403.24896576 596.40437382 403.24291992 593.83032227 C403.24853943 593.06297256 403.25415894 592.29562286 403.25994873 591.50502014 C403.379678 587.2937622 403.379678 587.2937622 401 584 C398.39719432 584.32041397 398.39719432 584.32041397 396 585 C395.95512451 586.16756836 395.91024902 587.33513672 395.86401367 588.53808594 C395.69052659 592.97445193 395.50235722 597.41010547 395.31030273 601.84570312 C395.22995501 603.74593485 395.15330873 605.64632761 395.08081055 607.546875 C394.69104545 617.6968958 394.09170646 627.7635611 392.67578125 637.828125 C392.57097946 638.62055603 392.46617767 639.41298706 392.35820007 640.22943115 C391.09643723 648.4448765 388.50099646 655.34661075 382.07421875 660.80859375 C376.62618141 663.93788073 370.70040465 664.35544884 364.5625 664.625 C363.83095703 664.66367187 363.09941406 664.70234375 362.34570312 664.7421875 C360.56416468 664.83533984 358.78211878 664.91870286 357 665 C357.01252808 664.24328003 357.02505615 663.48656006 357.03796387 662.70690918 C357.202867 652.63809586 357.35553701 642.5691264 357.5 632.5 C357.51187725 631.67265854 357.5237545 630.84531708 357.53599167 629.99290466 C357.96111825 600.07810832 358.08862893 570.16762658 358.0625 540.25 C358.06164398 539.26276947 358.06078796 538.27553894 358.05990601 537.25839233 C358.04863658 525.17224265 358.0287442 513.0861204 358 501 C363.02238192 503.03467859 366.11230451 504.29412587 369 509 C369.84633193 511.32620376 370.43100019 513.58175079 371 516 C371.66 516 372.32 516 373 516 C373.02505615 516.78238037 373.0501123 517.56476074 373.07592773 518.37084961 C373.19149788 521.89324949 373.31439949 525.4153556 373.4375 528.9375 C373.47681641 530.16919922 373.51613281 531.40089844 373.55664062 532.66992188 C373.59853516 533.83974609 373.64042969 535.00957031 373.68359375 536.21484375 C373.73858032 537.84087524 373.73858032 537.84087524 373.79467773 539.49975586 C373.72364265 541.939263 373.72364265 541.939263 375 543 C376.65 543 378.3 543 380 543 C380 512.97 380 482.94 380 452 C378.02 452 376.04 452 374 452 C373.90912109 453.82724609 373.90912109 453.82724609 373.81640625 455.69140625 C373.73193597 457.31511277 373.64729128 458.93881022 373.5625 460.5625 C373.52318359 461.36236328 373.48386719 462.16222656 373.44335938 462.98632812 C373.05888876 470.23212047 372.55837981 476.59632065 369.25 483.1875 C368.76015625 484.19167969 368.2703125 485.19585937 367.765625 486.23046875 C364.8721267 490.76916409 362.20908124 492.69772969 357 494 C357 450.11 357 406.22 357 361 C381.29104478 362.61940299 381.29104478 362.61940299 387 369 C390.18105449 374.84039764 391.80683482 380.58601423 392.67578125 387.140625 C392.79617264 387.99545471 392.91656403 388.85028442 393.04060364 389.73101807 C394.39981363 400.03133309 394.80182478 410.37648392 395.1875 420.75 C395.26919562 422.7305097 395.35187375 424.71097911 395.43554688 426.69140625 C395.63496174 431.460552 395.82130276 436.23003492 396 441 C398.39719432 441.67958603 398.39719432 441.67958603 401 442 C403.53562284 439.46437716 403.23544304 437.87794258 403.24884033 434.42041016 C403.24164978 433.64213867 403.23445923 432.86386719 403.22705078 432.06201172 C403.22734283 431.24241974 403.22763489 430.42282776 403.22793579 429.57839966 C403.22653944 426.86205557 403.21096401 424.14598382 403.1953125 421.4296875 C403.19158345 419.54924672 403.18873597 417.66880401 403.18673706 415.7883606 C403.17909207 410.83334002 403.15943619 405.87843626 403.1373291 400.92346191 C403.11329707 394.98136306 403.10409381 389.0392252 403.09242249 383.09709167 C403.07301227 374.06464648 403.03469574 365.03245771 403 356 C376.27 356 349.54 356 322 356 Z M469 356 C469 357.65 469 359.3 469 361 C474.28 361 479.56 361 485 361 C485 461.32 485 561.64 485 665 C480.05 665 475.1 665 470 665 C469.67 666.65 469.34 668.3 469 670 C482.2 670 495.4 670 509 670 C509 668.35 509 666.7 509 665 C504.05 665 499.1 665 494 665 C494.33 580.19 494.66 495.38 495 408 C495.33 410.97 495.66 413.94 496 417 C496.495 417.495 496.495 417.495 497 418 C497.25140411 419.58736486 497.44160541 421.18446996 497.60705566 422.78308105 C497.71636917 423.81795151 497.82568268 424.85282196 497.93830872 425.91905212 C498.11289864 427.6365139 498.11289864 427.6365139 498.29101562 429.38867188 C498.41635178 430.58690079 498.54168793 431.7851297 498.67082214 433.01966858 C498.94340539 435.63101838 499.21437851 438.24247877 499.48271179 440.85426331 C499.90672403 444.98013043 500.33741457 449.10528315 500.76916504 453.23034668 C501.76259855 462.73184294 502.74719147 472.23425146 503.73174286 481.73667145 C504.63393693 490.44333618 505.53796685 499.14979952 506.44915342 507.85552835 C506.87851018 511.96019242 507.30354272 516.0652749 507.72533417 520.17072296 C508.04976028 523.31795216 508.3798319 526.46459026 508.70898438 529.61132812 C508.82537766 530.75630264 508.94177094 531.90127716 509.06169128 533.08094788 C509.17100479 534.11581833 509.2803183 535.15068878 509.39294434 536.21691895 C509.48659019 537.12174263 509.58023605 538.02656631 509.67671967 538.9588089 C509.79331554 540.98924558 509.79331554 540.98924558 511 542 C511.24909029 543.56346988 511.43710437 545.13671998 511.60032654 546.71147156 C511.70819489 547.73070206 511.81606323 548.74993256 511.92720032 549.80004883 C512.04202255 550.92781738 512.15684479 552.05558594 512.27514648 553.2175293 C512.39887634 554.39797318 512.5226062 555.57841705 512.65008545 556.79463196 C512.98988696 560.04250738 513.32585936 563.29075472 513.66060901 566.53915381 C514.01208502 569.93738831 514.36959272 573.33498653 514.7268219 576.73262024 C515.8665374 587.58351705 516.99640396 598.43543607 518.12253004 609.28775102 C518.86169072 616.41040564 519.60474913 623.53262993 520.35506493 630.65411884 C520.71115198 634.03644696 521.06451487 637.41901334 521.41155815 640.80228233 C521.80010034 644.58068599 522.1968812 648.35814179 522.59545898 652.13549805 C522.70825699 653.25314545 522.82105499 654.37079285 522.93727112 655.52230835 C523.48063154 660.59485049 524.07199854 665.22664596 526 670 C528.64 670 531.28 670 534 670 C536.36502831 659.36287266 537.54323273 648.56272806 538.89819336 637.76147461 C539.22159595 635.19338877 539.55003797 632.62598442 539.87890625 630.05859375 C539.97683975 629.26392197 540.07477325 628.46925018 540.17567444 627.65049744 C540.88700654 622.11299346 540.88700654 622.11299346 542 621 C542.47990124 617.93907351 542.90247496 614.88742903 543.29101562 611.81445312 C543.41635178 610.85030991 543.54168793 609.88616669 543.67082214 608.89280701 C543.94333692 606.7922613 544.21387793 604.69145882 544.48271179 602.59043884 C544.90755302 599.27106926 545.33763701 595.95241757 545.76916504 592.63391113 C546.68418355 585.58988337 547.59255181 578.54500647 548.5 571.5 C549.55105388 563.34010564 550.60477444 555.1805753 551.66569519 547.0219574 C552.09069447 543.74232888 552.51056957 540.46206936 552.93029785 537.1817627 C553.18960889 535.18299149 553.44915793 533.18425115 553.70898438 531.18554688 C553.82537766 530.26499008 553.94177094 529.34443329 554.06169128 528.39598083 C554.88615654 522.11384346 554.88615654 522.11384346 556 521 C556.47990124 517.93907351 556.90247496 514.88742903 557.29101562 511.81445312 C557.41635178 510.85030991 557.54168793 509.88616669 557.67082214 508.89280701 C557.94333692 506.7922613 558.21387793 504.69145882 558.48271179 502.59043884 C558.90755302 499.27106926 559.33763701 495.95241757 559.76916504 492.63391113 C560.68418355 485.58988337 561.59255181 478.54500647 562.5 471.5 C563.55105388 463.34010564 564.60477444 455.1805753 565.66569519 447.0219574 C566.09069447 443.74232888 566.51056957 440.46206936 566.93029785 437.1817627 C567.18960889 435.18299149 567.44915793 433.18425115 567.70898438 431.18554688 C567.8835743 429.80471169 567.8835743 429.80471169 568.06169128 428.39598083 C568.88615654 422.11384346 568.88615654 422.11384346 570 421 C571.32 411.1 572.64 401.2 574 391 C574.33 481.42 574.66 571.84 575 665 C570.05 665 565.1 665 560 665 C560 666.65 560 668.3 560 670 C576.83 670 593.66 670 611 670 C610.67 668.35 610.34 666.7 610 665 C605.05 665 600.1 665 595 665 C595 564.68 595 464.36 595 361 C599.95 361 604.9 361 610 361 C610.33 359.35 610.66 357.7 611 356 C597.47 356 583.94 356 570 356 C568.57827965 363.00749995 568.57827965 363.00749995 567.4375 370.0625 C567 373 567 373 566 374 C565.52019417 377.03031201 565.09761401 380.0512919 564.70898438 383.09375 C564.58364822 384.04813965 564.45831207 385.0025293 564.32917786 385.98583984 C564.05666659 388.0651026 563.78612536 390.14462425 563.51728821 392.22436523 C563.09243964 395.51013427 562.66235797 398.79517945 562.23083496 402.08007812 C561.31582528 409.05277104 560.40745343 416.0263202 559.5 423 C558.44893838 431.07729292 557.39521495 439.15421881 556.33430481 447.23022461 C555.90931195 450.47661074 555.48943376 453.72363318 555.06970215 456.97070312 C554.81039064 458.94925162 554.55084157 460.927769 554.29101562 462.90625 C554.1164257 464.27305908 554.1164257 464.27305908 553.93830872 465.66748047 C553.11384346 471.88615654 553.11384346 471.88615654 552 473 C551.52019417 476.03031201 551.09761401 479.0512919 550.70898438 482.09375 C550.58364822 483.04813965 550.45831207 484.0025293 550.32917786 484.98583984 C550.05666659 487.0651026 549.78612536 489.14462425 549.51728821 491.22436523 C549.09243964 494.51013427 548.66235797 497.79517945 548.23083496 501.08007812 C547.31582528 508.05277104 546.40745343 515.0263202 545.5 522 C544.44893838 530.07729292 543.39521495 538.15421881 542.33430481 546.23022461 C541.90931195 549.47661074 541.48943376 552.72363318 541.06970215 555.97070312 C540.81039064 557.94925162 540.55084157 559.927769 540.29101562 561.90625 C540.1164257 563.27305908 540.1164257 563.27305908 539.93830872 564.66748047 C539.11384346 570.88615654 539.11384346 570.88615654 538 572 C537.835 573.155 537.67 574.31 537.5 575.5 C537 579 537 579 536 580 C535.901996 579.05008682 535.803992 578.10017365 535.70301819 577.12147522 C534.7808193 568.1886032 533.85399916 559.25622128 532.92260075 550.32430363 C532.44385967 545.7318223 531.96677355 541.13918137 531.4934082 536.54614258 C531.03690033 532.1172582 530.57612559 527.68883704 530.1123333 523.26070976 C529.93576039 521.56750863 529.76075044 519.87414378 529.58729744 518.18062019 C529.34491321 515.81666259 529.09707996 513.45333745 528.84790039 511.09008789 C528.77668976 510.38302704 528.70547913 509.67596619 528.6321106 508.94747925 C528.52072983 505.68859972 528.52072983 505.68859972 527 503 C526.74850924 501.39993881 526.55835319 499.79019166 526.39294434 498.17895508 C526.28363083 497.13567047 526.17431732 496.09238586 526.06169128 495.01748657 C525.945298 493.86316132 525.82890472 492.70883606 525.70898438 491.51953125 C525.58364822 490.31154877 525.45831207 489.10356628 525.32917786 487.85897827 C525.05659247 485.22634626 524.78561895 482.59360448 524.51728821 479.96054077 C524.09328125 475.80107224 523.6625887 471.64231313 523.23083496 467.48364258 C522.23739486 457.90473675 521.25280523 448.32492503 520.26825714 438.74510193 C519.36606707 429.96752636 518.46203916 421.1901508 517.55084658 412.4135046 C517.12148541 408.27538617 516.69645331 404.13685227 516.27466583 399.99795532 C515.95024352 396.8251015 515.62016952 393.65283467 515.29101562 390.48046875 C515.17462234 389.32614349 515.05822906 388.17181824 514.93830872 386.98251343 C514.82899521 385.93922882 514.7196817 384.89594421 514.60705566 383.82104492 C514.51340981 382.90884689 514.41976395 381.99664886 514.32328033 381.05680847 C514.20877568 379.01252935 514.20877568 379.01252935 513 378 C512.78569557 376.5387489 512.62952614 375.06884765 512.5 373.59765625 C512.4175 372.70755859 512.335 371.81746094 512.25 370.90039062 C512.1675 369.96388672 512.085 369.02738281 512 368.0625 C511.83699018 366.21972495 511.67049063 364.37725425 511.5 362.53515625 C511.39171875 361.30357788 511.39171875 361.30357788 511.28125 360.04711914 C511.1032915 357.93882335 511.1032915 357.93882335 510 356 C496.47 356 482.94 356 469 356 Z M707 356 C707 357.65 707 359.3 707 361 C711.95 361 716.9 361 722 361 C722 461.32 722 561.64 722 665 C717.05 665 712.1 665 707 665 C707 666.65 707 668.3 707 670 C714.53713598 670.0698181 722.074238 670.12297162 729.61162472 670.15543652 C733.11237531 670.17102599 736.61290302 670.19213941 740.11352539 670.22631836 C744.14731871 670.26545205 748.18088156 670.27976462 752.21484375 670.29296875 C754.08099586 670.31619453 754.08099586 670.31619453 755.98484802 670.33988953 C766.114244 670.34183376 773.76524974 669.03929158 781.2734375 661.96484375 C786.28669738 656.25970864 788.11969632 649.78155051 788.13142776 642.27409077 C788.13718948 640.88375864 788.13718948 640.88375864 788.1430676 639.465339 C788.14220112 638.45562311 788.14133463 637.44590722 788.14044189 636.40559387 C788.14341302 635.32623603 788.14638414 634.24687819 788.1494453 633.13481253 C788.15812941 629.51149806 788.15964031 625.88821664 788.16113281 622.26489258 C788.16576119 619.66957529 788.17078588 617.07425868 788.17617798 614.47894287 C788.18974686 607.42300914 788.19578382 600.36708109 788.20018864 593.31113648 C788.20295362 588.90301217 788.20719145 584.49489004 788.21169281 580.0867672 C788.22388381 567.87529164 788.23418331 555.66381782 788.2375679 543.45233631 C788.23778747 542.67111056 788.23800703 541.8898848 788.23823325 541.08498554 C788.23845153 540.30191941 788.23866981 539.51885329 788.2388947 538.71205789 C788.23933816 537.12534002 788.23978473 535.53862216 788.24023438 533.9519043 C788.2404558 533.16484199 788.24067723 532.37777969 788.24090537 531.56686702 C788.24485191 518.81869068 788.26230225 506.07057155 788.2855939 493.3224173 C788.30932928 480.22536472 788.32177075 467.12834082 788.32293582 454.03126639 C788.32385137 446.68127716 788.32957348 439.33136247 788.34775543 431.98139381 C788.36480187 425.06621715 788.36639269 418.15118397 788.35761642 411.23599243 C788.35684592 408.70040699 788.36119048 406.16481396 788.37107468 403.62924767 C788.38379457 400.16243857 788.37791659 396.69613021 788.36749268 393.22932434 C788.37554908 392.23076206 788.38360548 391.23219977 788.39190602 390.20337802 C788.31341155 379.00750531 785.42294803 370.52489959 777.5234375 362.5 C769.7442395 355.5112018 762.39882663 355.5837371 752.41015625 355.70703125 C751.11049423 355.71127609 749.81083221 355.71552094 748.4717865 355.71989441 C745.03740741 355.73128051 741.60341649 355.7606925 738.16918945 355.79400635 C734.65646616 355.82484292 731.14367937 355.83842859 727.63085938 355.85351562 C720.75374805 355.88556937 713.87689273 355.93668885 707 356 Z M806 356 C805.67 357.65 805.34 359.3 805 361 C809.95 361 814.9 361 820 361 C820 461.32 820 561.64 820 665 C815.38 665 810.76 665 806 665 C805.67 666.65 805.34 668.3 805 670 C831.4 670 857.8 670 885 670 C885 641.62 885 613.24 885 584 C883.35 584 881.7 584 880 584 C878.12522896 585.87477104 878.802065 589.07516724 878.75390625 591.578125 C878.72237964 592.97103531 878.69054754 594.36393873 878.65844727 595.75683594 C878.64306915 596.49059448 878.62769104 597.22435303 878.61184692 597.98034668 C878.21700747 616.1405196 877.12531281 634.07932336 874 652 C873.34 652 872.68 652 872 652 C871.34 653.98 870.68 655.96 870 658 C869.34 658 868.68 658 868 658 C868 658.66 868 659.32 868 660 C858.59009822 664.11683203 851.75416698 664 841 664 C841.33 610.21 841.66 556.42 842 501 C850.73359375 505.36679687 850.73359375 505.36679687 852.79150391 511.27075195 C854.75382798 518.24014264 855.68326937 524.97561421 856.1875 532.1875 C856.3102832 533.75854492 856.3102832 533.75854492 856.43554688 535.36132812 C856.63315554 537.90699267 856.82116459 540.45295989 857 543 C858.99954746 543.04254356 861.00041636 543.04080783 863 543 C864.83357444 541.16642556 864.11999967 538.60364305 864.12442017 536.1640625 C864.12082489 535.32609131 864.11722961 534.48812012 864.11352539 533.62475586 C864.11367142 532.74678848 864.11381744 531.86882111 864.1139679 530.96424866 C864.11326844 528.04775565 864.10547455 525.13132567 864.09765625 522.21484375 C864.09579218 520.19845108 864.09436823 518.18205796 864.09336853 516.16566467 C864.08954244 510.84734862 864.07971139 505.5290597 864.06866455 500.21075439 C864.05845238 494.78829312 864.05387133 489.36582748 864.04882812 483.94335938 C864.0380892 473.29556097 864.02101169 462.64778274 864 452 C861.69 452 859.38 452 857 452 C856.95512451 452.64437012 856.91024902 453.28874023 856.86401367 453.95263672 C856.65013776 456.92772257 856.41891478 459.90122898 856.1875 462.875 C856.11724609 463.88820313 856.04699219 464.90140625 855.97460938 465.9453125 C855.18740603 475.76961023 853.79153679 483.65779806 847 491 C847 491.66 847 492.32 847 493 C844.69 493.33 842.38 493.66 840 494 C840 450.11 840 406.22 840 361 C860 363 860 363 866 366 C866.99 366.33 867.98 366.66 869 367 C869.72904086 368.64034193 870.38655243 370.31301918 871 372 C871.48210937 372.70640625 871.96421875 373.4128125 872.4609375 374.140625 C874.46502891 377.86396234 875.00405306 381.35094547 875.625 385.5 C875.74617187 386.22703125 875.86734375 386.9540625 875.9921875 387.703125 C877.99273602 400.31527874 878.23197373 413.07307332 878.5625 425.8125 C878.60582772 427.39128408 878.64944576 428.97006023 878.69335938 430.54882812 C878.79890974 434.36580244 878.90056705 438.18286163 879 442 C880.66611905 442.042721 882.33382885 442.04063832 884 442 C885.7772169 440.2227831 885.11988099 437.847528 885.12442017 435.48136902 C885.12082489 434.69015152 885.11722961 433.89893402 885.11352539 433.08374023 C885.11367142 432.25454071 885.11381744 431.42534119 885.1139679 430.5710144 C885.11326851 427.81684802 885.10547493 425.06274839 885.09765625 422.30859375 C885.09579216 420.40430234 885.09436822 418.50001045 885.09336853 416.59571838 C885.08954263 411.57332037 885.07971173 406.55095108 885.06866455 401.52856445 C885.05665775 395.50804488 885.05204853 389.48751572 885.04621124 383.46698761 C885.03650001 374.31130507 885.01734396 365.15568561 885 356 C858.93 356 832.86 356 806 356 Z M895 356 C894.67 357.65 894.34 359.3 894 361 C898.95 361 903.9 361 909 361 C909 461.32 909 561.64 909 665 C904.38 665 899.76 665 895 665 C894.67 666.65 894.34 668.3 894 670 C920.73 670 947.46 670 975 670 C975 641.95 975 613.9 975 585 C973.35 584.67 971.7 584.34 970 584 C967.17543619 586.82456381 967.71595768 588.71988982 967.65625 592.67578125 C967.64244293 593.34895386 967.62863586 594.02212646 967.6144104 594.71569824 C967.58478021 596.16241434 967.55900798 597.60921354 967.53668213 599.05606079 C967.47533507 602.82972128 967.3761111 606.60226696 967.2734375 610.375 C967.25320526 611.12151321 967.23297302 611.86802643 967.21212769 612.63716125 C966.20123146 647.25355877 966.20123146 647.25355877 958 658 C958 658.66 958 659.32 958 660 C956.58398286 660.48108275 955.16715563 660.95978141 953.75 661.4375 C952.56664062 661.83775391 952.56664062 661.83775391 951.359375 662.24609375 C943.50579573 664.75559838 938.37821394 664.41386163 929 665 C929 564.68 929 464.36 929 361 C934.28 361 939.56 361 945 361 C945.33 360.01 945.66 359.02 946 358 C945.505 357.01 945.505 357.01 945 356 C928.5 356 912 356 895 356 Z M486 692 C483.57589616 695.63615575 483.73643589 697.37093648 483.70947266 701.70288086 C483.70275543 702.37964371 483.69603821 703.05640656 483.68911743 703.75367737 C483.67011979 705.99080751 483.66621253 708.22763797 483.6640625 710.46484375 C483.65763621 712.02039209 483.65090797 713.5759392 483.64389038 715.13148499 C483.63191352 718.39229129 483.62821001 721.65299161 483.62939453 724.91381836 C483.62959784 729.09159604 483.60228553 733.26869439 483.56785011 737.446311 C483.54561044 740.65909444 483.54155606 743.87171357 483.54261398 747.08456612 C483.54025398 748.6247549 483.53140795 750.16494795 483.51594925 751.70506096 C483.4963454 753.85976606 483.50210318 756.01299561 483.51416016 758.16772461 C483.51131012 759.39333603 483.50846008 760.61894745 483.50552368 761.88169861 C484.09458663 765.59648885 485.01107656 766.78234954 488 769 C491.00845664 769.51913234 491.00845664 769.51913234 494.1875 769.3125 C495.25355469 769.28800781 496.31960938 769.26351562 497.41796875 769.23828125 C499.92911665 769.2839287 499.92911665 769.2839287 501 768 C501.08767112 765.92737924 501.10695873 763.85179706 501.09765625 761.77734375 C501.09282227 759.88725586 501.09282227 759.88725586 501.08789062 757.95898438 C501.07953403 756.61848891 501.07106907 755.27799412 501.0625 753.9375 C501.0574866 752.59310058 501.05292342 751.2486994 501.04882812 749.90429688 C501.03699488 746.60282059 501.02050971 743.30143197 501 740 C501.66 740 502.32 740 503 740 C503 739.01 503 738.02 503 737 C499.37 737 495.74 737 492 737 C492.33 737.99 492.66 738.98 493 740 C493.66 740 494.32 740 495 740 C494.67 748.25 494.34 756.5 494 765 C492.02 765.495 492.02 765.495 490 766 C490.33 742.24 490.66 718.48 491 694 C491.99 694 492.98 694 494 694 C494.33 701.59 494.66 709.18 495 717 C496.65 717.33 498.3 717.66 500 718 C501.66617889 714.66764222 501.22670485 710.97275012 501.25 707.3125 C501.270625 706.52166016 501.29125 705.73082031 501.3125 704.91601562 C501.34818865 699.51364635 500.55858102 695.78181404 498 691 C493.48785461 687.7568955 490.30417239 689.02018834 486 692 Z M104 690 C103.67 690.99 103.34 691.98 103 693 C104.32 693 105.64 693 107 693 C107 717.09 107 741.18 107 766 C105.02 766.495 105.02 766.495 103 767 C103.33 767.66 103.66 768.32 104 769 C107.3 769 110.6 769 114 769 C114.33 768.01 114.66 767.02 115 766 C113.68 766 112.36 766 111 766 C111.33 753.46 111.66 740.92 112 728 C113.65 741.2 115.3 754.4 117 768 C118.32 768 119.64 768 121 768 C122.08137216 765.83725568 122.33586124 764.21564803 122.66430664 761.82568359 C122.84438011 760.53457169 122.84438011 760.53457169 123.02809143 759.21737671 C123.15417282 758.28712677 123.28025421 757.35687683 123.41015625 756.3984375 C123.54191757 755.44683746 123.67367889 754.49523743 123.80943298 753.51480103 C124.23043512 750.46864683 124.64652 747.42184368 125.0625 744.375 C125.34668215 742.31245546 125.63118327 740.24995485 125.91601562 738.1875 C126.61498511 733.1255752 127.30730681 728.0628034 128 723 C128.33 737.19 128.66 751.38 129 766 C128.01 766 127.02 766 126 766 C126 766.99 126 767.98 126 769 C129.96 769 133.92 769 138 769 C138.495 767.515 138.495 767.515 139 766 C138.01 766 137.02 766 136 766 C136 741.91 136 717.82 136 693 C136.99 693 137.98 693 139 693 C139 692.01 139 691.02 139 690 C135.37 690 131.74 690 128 690 C125.69 704.85 123.38 719.7 121 735 C118.625 714.1875 118.625 714.1875 117.88916016 707.62573242 C117.68977217 705.91056948 117.48978081 704.19547652 117.2890625 702.48046875 C117.19133545 701.58896118 117.0936084 700.69745361 116.99291992 699.77893066 C116.89164795 698.92657837 116.79037598 698.07422607 116.68603516 697.19604492 C116.60165192 696.45658127 116.51726868 695.71711761 116.43032837 694.95524597 C116.05592303 692.69075387 116.05592303 692.69075387 114 690 C111.56306689 689.63583953 111.56306689 689.63583953 108.875 689.8125 C107.96492188 689.83957031 107.05484375 689.86664062 106.1171875 689.89453125 C105.41851562 689.92933594 104.71984375 689.96414063 104 690 Z M218 690 C216.31035033 691.68964967 216.50760378 693.92885985 216.203125 696.24609375 C216.05141846 697.37740723 215.89971191 698.5087207 215.7434082 699.67431641 C215.5805835 700.91616699 215.41775879 702.15801758 215.25 703.4375 C214.89603755 706.0796423 214.54095038 708.72159912 214.18359375 711.36328125 C214.09003098 712.05665588 213.9964682 712.75003052 213.90007019 713.4644165 C213.19103377 718.6838579 212.43658612 723.89565417 211.66015625 729.10546875 C211.54793732 729.85934372 211.43571838 730.61321869 211.32009888 731.38993835 C210.8774654 734.35752117 210.43372224 737.32491745 209.98425293 740.29147339 C208.73926272 748.51108236 207.61688295 756.70549917 207 765 C205.02 765.495 205.02 765.495 203 766 C203.33 766.99 203.66 767.98 204 769 C206.97 769 209.94 769 213 769 C213.33 768.01 213.66 767.02 214 766 C213.01 766 212.02 766 211 766 C211.99 760.06 212.98 754.12 214 748 C217.465 747.505 217.465 747.505 221 747 C221.66 753.27 222.32 759.54 223 766 C221.02 766.495 221.02 766.495 219 767 C219.495 767.99 219.495 767.99 220 769 C224.29 769 228.58 769 233 769 C233 768.01 233 767.02 233 766 C232.01 766 231.02 766 230 766 C229.92927277 765.32142944 229.85854553 764.64285889 229.78567505 763.94372559 C229.11098249 757.47343407 228.43469331 751.00331152 227.75671577 744.53336334 C227.40841573 741.20901565 227.0608587 737.88459434 226.71435547 734.56005859 C225.82593098 726.03823958 224.92279059 717.51816706 224 709 C223.9011853 708.07654785 223.80237061 707.1530957 223.70056152 706.20166016 C223.45287218 703.9145099 223.1942657 701.62899818 222.9296875 699.34375 C222.79546387 698.15974609 222.66124023 696.97574219 222.52294922 695.75585938 C222.14729405 692.79859905 222.14729405 692.79859905 220 690 C219.34 690 218.68 690 218 690 Z M298 690 C297.67 690.99 297.34 691.98 297 693 C298.32 693 299.64 693 301 693 C301 717.09 301 741.18 301 766 C299.68 766 298.36 766 297 766 C297.33 766.99 297.66 767.98 298 769 C301.3 769 304.6 769 308 769 C308 768.01 308 767.02 308 766 C307.01 766 306.02 766 305 766 C305.33 748.84 305.66 731.68 306 714 C307.093125 719.56875 308.18625 725.1375 309.3125 730.875 C309.65063721 732.59058105 309.98877441 734.30616211 310.3371582 736.07373047 C312.41651861 746.68653802 314.27806776 757.32354112 316 768 C317.94603274 768.59070014 317.94603274 768.59070014 320 769 C321.66165207 767.33834793 321.11959725 765.3348397 321.12442017 763.11598206 C321.12082489 762.41827194 321.11722961 761.72056183 321.11352539 761.00170898 C321.11367142 760.27004517 321.11381744 759.53838135 321.1139679 758.7845459 C321.11326867 756.35503216 321.10547585 753.92559417 321.09765625 751.49609375 C321.0957921 749.81600486 321.09436819 748.13591543 321.09336853 746.45582581 C321.08954307 742.02526357 321.07971256 737.5947339 321.06866455 733.16418457 C321.05845103 728.64657024 321.05387104 724.12895066 321.04882812 719.61132812 C321.03809031 710.74087107 321.02101356 701.87043824 321 693 C321.99 693 322.98 693 324 693 C323.67 692.01 323.34 691.02 323 690 C319.7 690 316.4 690 313 690 C313 690.99 313 691.98 313 693 C314.32 693 315.64 693 317 693 C316.67 703.89 316.34 714.78 316 726 C315.59007812 723.65261719 315.18015625 721.30523438 314.7578125 718.88671875 C314.35570554 716.61273054 313.95116526 714.33918781 313.54638672 712.06567383 C313.2664936 710.4860453 312.98913027 708.90596634 312.71435547 707.32543945 C312.31883208 705.05296482 311.91422268 702.78226834 311.5078125 700.51171875 C311.3868924 699.80536789 311.26597229 699.09901703 311.14138794 698.3712616 C310.52539786 694.98021373 309.94272621 692.91408931 308 690 C305.56306689 689.63583953 305.56306689 689.63583953 302.875 689.8125 C301.96492188 689.83957031 301.05484375 689.86664062 300.1171875 689.89453125 C299.41851562 689.92933594 298.71984375 689.96414063 298 690 Z M403 690 C401.47909216 691.52090784 401.59396924 693.08641761 401.29150391 695.19897461 C401.16103165 696.09679657 401.03055939 696.99461853 400.89613342 697.91964722 C400.75767502 698.90393707 400.61921661 699.88822693 400.4765625 700.90234375 C400.33049057 701.91966583 400.18441864 702.93698792 400.03392029 703.98513794 C399.55952724 707.30193482 399.09189843 710.61964043 398.625 713.9375 C398.46659637 715.05325409 398.30819275 716.16900818 398.14498901 717.318573 C395.84544293 733.52083236 393.68404872 749.72086238 392 766 C390.68 766 389.36 766 388 766 C388.33 766.99 388.66 767.98 389 769 C391.97 769 394.94 769 398 769 C398.33 768.01 398.66 767.02 399 766 C397.68 766 396.36 766 395 766 C395.99 759.73 396.98 753.46 398 747 C400.64 747 403.28 747 406 747 C406.66 753.27 407.32 759.54 408 766 C406.02 766.495 406.02 766.495 404 767 C404.495 767.99 404.495 767.99 405 769 C409.29 769 413.58 769 418 769 C418 768.01 418 767.02 418 766 C416.68 766 415.36 766 414 766 C413.93530518 765.18474854 413.87061035 764.36949707 413.80395508 763.52954102 C411.84662734 739.26707761 409.08060237 715.14387825 406 691 C405.01 690.67 404.02 690.34 403 690 Z M569 690 C569 690.99 569 691.98 569 693 C569.99 693 570.98 693 572 693 C572 717.09 572 741.18 572 766 C571.01 766 570.02 766 569 766 C569 766.99 569 767.98 569 769 C575.6 769 582.2 769 589 769 C589 761.41 589 753.82 589 746 C588.34 746 587.68 746 587 746 C586.87882813 747.20398438 586.75765625 748.40796875 586.6328125 749.6484375 C586.46400141 751.22400766 586.29470541 752.79952592 586.125 754.375 C586.04636719 755.1690625 585.96773437 755.963125 585.88671875 756.78125 C585.2265625 762.7734375 585.2265625 762.7734375 583 765 C581.02 765.495 581.02 765.495 579 766 C579.33 753.79 579.66 741.58 580 729 C580.33 731.64 580.66 734.28 581 737 C581.99 737.33 582.98 737.66 584 738 C584 730.08 584 722.16 584 714 C583.01 714 582.02 714 581 714 C580.67 717.3 580.34 720.6 580 724 C579 723 579 723 578.88647461 720.13256836 C578.89171143 718.88096924 578.89694824 717.62937012 578.90234375 716.33984375 C578.9037587 715.67537735 578.90517365 715.01091095 578.90663147 714.3263092 C578.91224482 712.19666101 578.92479946 710.06711661 578.9375 707.9375 C578.94251329 706.49674631 578.94707649 705.05599097 578.95117188 703.61523438 C578.96221855 700.07678898 578.97949208 696.53840461 579 693 C584.74786446 695.44568622 584.74786446 695.44568622 585.86474609 697.90112305 C585.91711426 698.59761963 585.96948242 699.29411621 586.0234375 700.01171875 C586.09433594 700.76904297 586.16523437 701.52636719 586.23828125 702.30664062 C586.28339844 703.09232422 586.32851563 703.87800781 586.375 704.6875 C586.47748047 705.88342773 586.47748047 705.88342773 586.58203125 707.10351562 C586.7466393 709.06705448 586.8766911 711.03343559 587 713 C587.66 713 588.32 713 589 713 C589 705.41 589 697.82 589 690 C582.4 690 575.8 690 569 690 Z M655 690 C655 690.99 655 691.98 655 693 C655.99 693 656.98 693 658 693 C658 717.09 658 741.18 658 766 C657.01 766 656.02 766 655 766 C655 766.99 655 767.98 655 769 C658.3 769 661.6 769 665 769 C665.33 768.01 665.66 767.02 666 766 C664.68 766 663.36 766 662 766 C662.33 751.15 662.66 736.3 663 721 C664.9375 740 664.9375 740 665.54272461 745.94921875 C665.70419301 747.52865313 665.86572836 749.10808066 666.02734375 750.6875 C666.10859497 751.48865234 666.18984619 752.28980469 666.27355957 753.11523438 C666.78329659 758.08649978 667.36307431 763.04337986 668 768 C669.32 768 670.64 768 672 768 C674.57624594 752.5700778 676.85179663 737.13862923 678.67456055 721.60107422 C679.0756512 718.39535793 679.54310853 715.19824027 680 712 C680.33 729.82 680.66 747.64 681 766 C679.68 766 678.36 766 677 766 C677 766.99 677 767.98 677 769 C681.29 769 685.58 769 690 769 C690 768.01 690 767.02 690 766 C688.68 766 687.36 766 686 766 C686 741.91 686 717.82 686 693 C687.32 693 688.64 693 690 693 C690 692.01 690 691.02 690 690 C686.37 690 682.74 690 679 690 C678.32116583 694.53034532 677.64592162 699.06120803 676.97363281 703.5925293 C676.7457155 705.12554453 676.51691152 706.65842828 676.28710938 708.19116211 C674.65134828 719.10699765 673.22797449 730.03073145 672 741 C671.44397491 736.55720887 670.89288358 732.11383883 670.34594727 727.66992188 C670.16005855 726.1648797 669.97292719 724.65999037 669.78442383 723.15527344 C668.68700456 714.38762511 667.7478706 705.66734537 667.24389648 696.84228516 C667.05656342 693.77659099 667.05656342 693.77659099 666 690 C662.37 690 658.74 690 655 690 Z M756 690 C755.67 690.99 755.34 691.98 755 693 C756.32 693 757.64 693 759 693 C759 717.09 759 741.18 759 766 C757.02 766.495 757.02 766.495 755 767 C755.33 767.66 755.66 768.32 756 769 C762.6 769 769.2 769 776 769 C776 761.41 776 753.82 776 746 C774.515 746.495 774.515 746.495 773 747 C772.90912109 748.46373047 772.90912109 748.46373047 772.81640625 749.95703125 C772.69072266 751.86548828 772.69072266 751.86548828 772.5625 753.8125 C772.48128906 755.07707031 772.40007813 756.34164062 772.31640625 757.64453125 C772 761 772 761 771 764 C768.03 764.99 768.03 764.99 765 766 C765 753.46 765 740.92 765 728 C765.66 728 766.32 728 767 728 C767.33 731.3 767.66 734.6 768 738 C768.99 738 769.98 738 771 738 C771 730.08 771 722.16 771 714 C770.01 714 769.02 714 768 714 C767.67 717.3 767.34 720.6 767 724 C766.34 724 765.68 724 765 724 C765 713.77 765 703.54 765 693 C766.98 693.66 768.96 694.32 771 695 C772.15570704 698.46712111 772.32835293 701.5414956 772.5625 705.1875 C772.68818359 707.09595703 772.68818359 707.09595703 772.81640625 709.04296875 C772.87699219 710.01878906 772.93757812 710.99460937 773 712 C773.99 712.33 774.98 712.66 776 713 C776 705.41 776 697.82 776 690 C769.4 690 762.8 690 756 690 Z M842 690 C842 690.99 842 691.98 842 693 C842.99 693 843.98 693 845 693 C845 717.09 845 741.18 845 766 C844.01 766 843.02 766 842 766 C842 766.99 842 767.98 842 769 C845.3 769 848.6 769 852 769 C852 768.01 852 767.02 852 766 C851.01 766 850.02 766 849 766 C849.33 748.84 849.66 731.68 850 714 C851.27875 720.496875 852.5575 726.99375 853.875 733.6875 C854.47417236 736.72070435 854.47417236 736.72070435 855.08544922 739.81518555 C856.92669485 749.18566293 858.67889715 758.53944798 860 768 C861.32 768.33 862.64 768.66 864 769 C864 743.92 864 718.84 864 693 C865.32 693 866.64 693 868 693 C868 692.01 868 691.02 868 690 C864.37 690 860.74 690 857 690 C857 690.99 857 691.98 857 693 C858.32 693 859.64 693 861 693 C860.67 704.22 860.34 715.44 860 727 C859.50628906 724.41285156 859.01257813 721.82570313 858.50390625 719.16015625 C858.02493809 716.66461469 857.54463937 714.16933268 857.06420898 711.67407227 C856.73013165 709.93508187 856.39744584 708.19582357 856.06616211 706.45629883 C855.59070533 703.96103909 855.11030965 701.46677462 854.62890625 698.97265625 C854.48095108 698.19036148 854.33299591 697.40806671 854.18055725 696.60206604 C853.74358695 693.00012584 853.74358695 693.00012584 852 690 C850.31391034 689.92794489 848.62499341 689.91613932 846.9375 689.9375 C846.01839844 689.94652344 845.09929688 689.95554687 844.15234375 689.96484375 C843.44207031 689.97644531 842.73179687 689.98804688 842 690 Z M933 691 C932.61961132 694.29796145 932.53015862 697.62212543 932.375 700.9375 C932.3234375 701.87013672 932.271875 702.80277344 932.21875 703.76367188 C932.17492187 704.65505859 932.13109375 705.54644531 932.0859375 706.46484375 C932.0451709 707.285896 932.0044043 708.10694824 931.96240234 708.95288086 C931.85423451 711.06739719 931.85423451 711.06739719 933 713 C933.99 713 934.98 713 936 713 C936.04898438 712.11957031 936.09796875 711.23914063 936.1484375 710.33203125 C936.22320313 709.17058594 936.29796875 708.00914062 936.375 706.8125 C936.44460938 705.66394531 936.51421875 704.51539063 936.5859375 703.33203125 C936.98059412 700.15616244 937.48788707 697.81335298 939 695 C939.99 694.67 940.98 694.34 942 694 C942 717.76 942 741.52 942 766 C940.02 766.495 940.02 766.495 938 767 C938.33 767.66 938.66 768.32 939 769 C943.29 769 947.58 769 952 769 C952 768.01 952 767.02 952 766 C951.01 766 950.02 766 949 766 C949 742.24 949 718.48 949 694 C949.99 694.33 950.98 694.66 952 695 C953.98760179 704.59066105 953.98760179 704.59066105 954.5 709.0625 C954.7475 710.5165625 954.7475 710.5165625 955 712 C955.66 712.33 956.32 712.66 957 713 C957 705.41 957 697.82 957 690 C953.225625 689.979375 949.45125 689.95875 945.5625 689.9375 C943.77501343 689.92384399 943.77501343 689.92384399 941.95141602 689.90991211 C941.01998779 689.90741455 940.08855957 689.90491699 939.12890625 689.90234375 C938.17056885 689.89710693 937.21223145 689.89187012 936.22485352 689.88647461 C934.02714661 689.7494687 934.02714661 689.7494687 933 691 Z " fill="#ffffff" mask="url(#letterHoles)" transform="translate(0,0)"/>
</svg>
